<svg viewBox="0 0 46 18" fill="none" xmlns="http://www.w3.org/2000/svg">
<mask id="mask0_133_190" style="mask-type:alpha" maskUnits="userSpaceOnUse" x="0" y="4" width="45" height="10">
<path d="M6.336 7.24C6.184 6.96 5.964 6.748 5.676 6.604C5.396 6.452 5.064 6.376 4.68 6.376C4.016 6.376 3.484 6.596 3.084 7.036C2.684 7.468 2.484 8.048 2.484 8.776C2.484 9.552 2.692 10.16 3.108 10.6C3.532 11.032 4.112 11.248 4.848 11.248C5.352 11.248 5.776 11.12 6.12 10.864C6.472 10.608 6.728 10.24 6.888 9.76H4.284V8.248H8.748V10.156C8.596 10.668 8.336 11.144 7.968 11.584C7.608 12.024 7.148 12.38 6.588 12.652C6.028 12.924 5.396 13.06 4.692 13.06C3.86 13.06 3.116 12.88 2.46 12.52C1.812 12.152 1.304 11.644 0.936 10.996C0.576 10.348 0.396 9.608 0.396 8.776C0.396 7.944 0.576 7.204 0.936 6.556C1.304 5.9 1.812 5.392 2.46 5.032C3.108 4.664 3.848 4.48 4.68 4.48C5.688 4.48 6.536 4.724 7.224 5.212C7.92 5.7 8.38 6.376 8.604 7.24H6.336ZM12.9326 13.096C12.2766 13.096 11.6846 12.956 11.1566 12.676C10.6366 12.396 10.2246 11.996 9.92063 11.476C9.62463 10.956 9.47663 10.348 9.47663 9.652C9.47663 8.964 9.62863 8.36 9.93262 7.84C10.2366 7.312 10.6526 6.908 11.1806 6.628C11.7086 6.348 12.3006 6.208 12.9566 6.208C13.6126 6.208 14.2046 6.348 14.7326 6.628C15.2606 6.908 15.6766 7.312 15.9806 7.84C16.2846 8.36 16.4366 8.964 16.4366 9.652C16.4366 10.34 16.2806 10.948 15.9686 11.476C15.6646 11.996 15.2446 12.396 14.7086 12.676C14.1806 12.956 13.5886 13.096 12.9326 13.096ZM12.9326 11.32C13.3246 11.32 13.6566 11.176 13.9286 10.888C14.2086 10.6 14.3486 10.188 14.3486 9.652C14.3486 9.116 14.2126 8.704 13.9406 8.416C13.6766 8.128 13.3486 7.984 12.9566 7.984C12.5566 7.984 12.2246 8.128 11.9606 8.416C11.6966 8.696 11.5646 9.108 11.5646 9.652C11.5646 10.188 11.6926 10.6 11.9486 10.888C12.2126 11.176 12.5406 11.32 12.9326 11.32ZM19.5773 7.42C19.8173 7.052 20.1173 6.764 20.4773 6.556C20.8373 6.34 21.2373 6.232 21.6773 6.232V8.404H21.1133C20.6013 8.404 20.2173 8.516 19.9613 8.74C19.7053 8.956 19.5773 9.34 19.5773 9.892V13H17.5253V6.304H19.5773V7.42ZM22.2501 9.64C22.2501 8.952 22.3781 8.348 22.6341 7.828C22.8981 7.308 23.2541 6.908 23.7021 6.628C24.1501 6.348 24.6501 6.208 25.2021 6.208C25.6741 6.208 26.0861 6.304 26.4381 6.496C26.7981 6.688 27.0741 6.94 27.2661 7.252V6.304H29.3181V13H27.2661V12.052C27.0661 12.364 26.7861 12.616 26.4261 12.808C26.0741 13 25.6621 13.096 25.1901 13.096C24.6461 13.096 24.1501 12.956 23.7021 12.676C23.2541 12.388 22.8981 11.984 22.6341 11.464C22.3781 10.936 22.2501 10.328 22.2501 9.64ZM27.2661 9.652C27.2661 9.14 27.1221 8.736 26.8341 8.44C26.5541 8.144 26.2101 7.996 25.8021 7.996C25.3941 7.996 25.0461 8.144 24.7581 8.44C24.4781 8.728 24.3381 9.128 24.3381 9.64C24.3381 10.152 24.4781 10.56 24.7581 10.864C25.0461 11.16 25.3941 11.308 25.8021 11.308C26.2101 11.308 26.5541 11.16 26.8341 10.864C27.1221 10.568 27.2661 10.164 27.2661 9.652ZM34.8946 13L32.8546 10.192V13H30.8026V4.12H32.8546V9.028L34.8826 6.304H37.4146L34.6306 9.664L37.4386 13H34.8946ZM44.8326 6.304V13H42.7806V12.088C42.5726 12.384 42.2886 12.624 41.9286 12.808C41.5766 12.984 41.1846 13.072 40.7526 13.072C40.2406 13.072 39.7886 12.96 39.3966 12.736C39.0046 12.504 38.7006 12.172 38.4846 11.74C38.2686 11.308 38.1606 10.8 38.1606 10.216V6.304H40.2006V9.94C40.2006 10.388 40.3166 10.736 40.5486 10.984C40.7806 11.232 41.0926 11.356 41.4846 11.356C41.8846 11.356 42.2006 11.232 42.4326 10.984C42.6646 10.736 42.7806 10.388 42.7806 9.94V6.304H44.8326Z" fill="black"/>
</mask>
<g mask="url(#mask0_133_190)">
<rect width="47" height="18" fill="url(#paint0_linear_133_190)"/>
</g>
<defs>
<linearGradient id="paint0_linear_133_190" x1="16.5" y1="2.5" x2="34" y2="18" gradientUnits="userSpaceOnUse">
<stop stop-color="#F60404"/>
<stop offset="0.504675" stop-color="#0592FF"/>
<stop offset="1" stop-color="#EDF90D"/>
</linearGradient>
</defs>
</svg>
